<svg width="38" height="27" viewBox="0 0 38 27" fill="none" xmlns="http://www.w3.org/2000/svg">
<path d="M19.3252 27C17.4678 27 15.6656 26.6429 13.9688 25.9388C12.3299 25.2588 10.8586 24.2856 9.59508 23.046C8.33154 21.8064 7.33962 20.3628 6.64642 18.7552C5.92851 17.0903 5.56476 15.3222 5.56476 13.5002C5.56476 11.6783 5.92875 9.90996 6.64642 8.24524C7.33962 6.63748 8.33154 5.19403 9.59508 3.95443C10.8586 2.71483 12.3302 1.7417 13.9688 1.06164C15.6656 0.357097 17.4678 0 19.3252 0C21.1826 0 22.9848 0.357097 24.6817 1.06117C26.3205 1.74123 27.7919 2.71436 29.0554 3.95396C30.3189 5.19356 31.3109 6.63724 32.0041 8.24477C32.722 9.90973 33.0857 11.6778 33.0857 13.4998C33.0857 15.3217 32.7217 17.09 32.0041 18.7548C31.3109 20.3625 30.3189 21.806 29.0554 23.0456C27.7919 24.2852 26.3203 25.2583 24.6817 25.9384C22.9848 26.6429 21.1826 27 19.3252 27ZM19.3252 1.64778C17.6939 1.64778 16.1119 1.96109 14.6231 2.57877C13.1846 3.17574 11.8925 4.03046 10.7828 5.11917C9.67306 6.20788 8.80183 7.47549 8.19333 8.88669C7.56348 10.3473 7.24436 11.8995 7.24436 13.4998C7.24436 15.1 7.56372 16.6522 8.19333 18.1128C8.80183 19.524 9.67306 20.7916 10.7828 21.8804C11.8925 22.9691 13.1846 23.8238 14.6231 24.4208C16.1119 25.0387 17.6941 25.3518 19.3252 25.3518C20.9564 25.3518 22.5386 25.0384 24.0274 24.4208C25.4659 23.8238 26.7579 22.9691 27.8677 21.8804C28.9774 20.7916 29.8486 19.524 30.4571 18.1128C31.087 16.6522 31.4061 15.1 31.4061 13.4998C31.4061 11.8995 31.0868 10.3473 30.4571 8.88669C29.8486 7.47549 28.9774 6.20788 27.8677 5.11917C26.7579 4.03046 25.4659 3.17574 24.0274 2.57877C22.5386 1.96109 20.9566 1.64778 19.3252 1.64778Z" fill="#1E263A"/>
<path d="M27.9788 13.9171C27.8344 13.7465 27.6276 13.6389 27.3967 13.6144C25.0527 13.3658 23.3707 13.4473 21.5335 14.0282C20.0235 14.5059 18.6978 15.2798 17.5936 16.2824C15.7669 17.9408 15.139 19.8682 15.0759 20.0756C15.0121 20.2846 15.039 20.5047 15.1513 20.6949C15.2638 20.8856 15.4488 21.0238 15.6719 21.0833C15.7497 21.1043 15.8301 21.1146 15.9107 21.1146C16.2955 21.1146 16.6622 20.8486 16.7675 20.5028L16.7704 20.4929C16.7836 20.4454 16.9081 20.0137 17.204 19.4901C17.4957 18.9735 18.0162 18.203 18.8373 17.4667C19.7555 16.643 20.8605 16.0256 22.1214 15.6318C23.7117 15.1348 25.1233 15.0124 27.2019 15.2328C27.677 15.2829 28.1077 14.9614 28.1614 14.5153C28.1876 14.2994 28.1228 14.0871 27.9788 13.9171Z" fill="#1E263A"/>
<path d="M23.4896 15.1289C23.1024 15.1289 22.7537 14.8641 22.669 14.4776C22.6606 14.4394 22.4644 13.5301 22.49 12.355C22.5052 11.6542 22.5959 10.9977 22.7595 10.4035C22.9726 9.62979 23.3102 8.95844 23.7634 8.40785C24.7453 7.21509 26.2202 6.6106 28.1469 6.6106C28.2573 6.6106 29.2574 6.62684 30.335 7.19226C31.3555 7.72755 32.6271 8.86075 32.8911 11.2192C32.9417 11.6714 32.6089 12.0784 32.148 12.1281C31.6871 12.1777 31.2722 11.8512 31.2216 11.399C31.0766 10.1036 30.5298 9.18678 29.5967 8.67408C28.8816 8.28121 28.1781 8.25931 28.1424 8.25837C27.3863 8.25884 26.7315 8.37607 26.1962 8.60676C25.7415 8.80261 25.3744 9.07496 25.0733 9.43912C23.6826 11.1222 24.3047 14.1026 24.3112 14.1325C24.4089 14.5774 24.1202 15.0147 23.6667 15.1105C23.6075 15.123 23.5482 15.1289 23.4896 15.1289Z" fill="#1E263A"/>
<path d="M15.6395 24.7975C12.2959 24.7975 9.17257 24.359 6.57039 23.5057C2.64036 22.2166 0.317479 20.1094 0.0295476 17.5722C-0.0553922 16.8227 0.0429844 16.0601 0.322278 15.3056C0.583576 14.5999 1.00468 13.8989 1.57382 13.2221C2.65236 11.9399 4.22783 10.7634 6.25654 9.72553C6.6678 9.51509 7.17504 9.67163 7.38955 10.0751C7.60406 10.4786 7.4445 10.9762 7.03324 11.1866C5.23079 12.1087 3.79089 13.1753 2.86927 14.2708C1.97812 15.3303 1.58438 16.38 1.69883 17.39C1.80105 18.2909 2.30828 19.1393 3.20639 19.9114C4.14673 20.7197 5.45777 21.4033 7.10282 21.9429C8.79034 22.4965 10.731 22.8651 12.8706 23.0386C15.1013 23.2196 17.4465 23.1787 19.8411 22.9174C22.2358 22.6559 24.5327 22.19 26.6682 21.5323C28.7166 20.9015 30.527 20.1232 32.0492 19.2193C33.533 18.338 34.6588 17.3886 35.395 16.3971C36.0982 15.4501 36.403 14.5133 36.3007 13.6124C36.1877 12.6157 35.5826 11.6878 34.5021 10.8543C33.3852 9.99271 31.7788 9.26533 29.8564 8.75075C29.4089 8.63094 29.1452 8.17803 29.2673 7.73902C29.3894 7.3 29.8513 7.0413 30.2986 7.16112C32.4665 7.74161 34.23 8.54831 35.5404 9.55911C36.2324 10.093 36.7883 10.681 37.1926 11.3069C37.6245 11.9755 37.886 12.6899 37.97 13.4302C38.258 15.9673 36.4641 18.524 32.919 20.6291C29.5679 22.6191 24.9896 24.0134 20.0269 24.5553C18.5404 24.7172 17.0693 24.7975 15.6395 24.7975Z" fill="#1E263A"/>
<path d="M9.83536 7.43808C11.187 7.43808 12.2828 6.36309 12.2828 5.03703C12.2828 3.71097 11.187 2.63599 9.83536 2.63599C8.48369 2.63599 7.38794 3.71097 7.38794 5.03703C7.38794 6.36309 8.48369 7.43808 9.83536 7.43808Z" fill="#4674FE"/>
<path d="M9.83543 8.26237C8.02291 8.26237 6.54822 6.81562 6.54822 5.03743C6.54822 3.25925 8.02291 1.8125 9.83543 1.8125C11.648 1.8125 13.1226 3.25925 13.1226 5.03743C13.1226 6.81562 11.648 8.26237 9.83543 8.26237ZM9.83543 3.46028C8.94909 3.46028 8.22782 4.16788 8.22782 5.03743C8.22782 5.90699 8.94909 6.61459 9.83543 6.61459C10.7218 6.61459 11.4431 5.90699 11.4431 5.03743C11.4431 4.16788 10.7218 3.46028 9.83543 3.46028Z" fill="#1E263A"/>
</svg>
